<svg id="Capa_1" enable-background="new 0 0 512 512" height="512" viewBox="0 0 512 512" width="512" xmlns="http://www.w3.org/2000/svg"><g><path d="m0 352.619v158.561h125.473v-233.042zm49.966 88.395v-56.213h29.807v56.213z"/><path d="m512 352.616-125.563-74.48v233.044h125.563zm-46.877 88.398h-29.807v-56.213h29.807z"/><path d="m154.472 511.18h56.771v-102.587c0-24.653 20.057-44.711 44.711-44.711s44.711 20.057 44.711 44.711v102.587h56.771v-291.418l82.784 52.151 15.887-25.22-186.072-117.219v-66.695h32.538v-29.807h-32.538v-32.152h-29.807v32.151h-30.892v29.807h30.892v67.73l-184.43 116.185 15.887 25.22 82.787-52.152zm86.579-282.444h29.807v59.614h-29.807z"/><path d="m270.858 408.593c0-8.218-6.685-14.904-14.904-14.904-8.218 0-14.904 6.686-14.904 14.904v102.587h29.807v-102.587z"/></g></svg>